<?xml version="1.0" encoding="UTF-8" standalone="no"?><svg xmlns="http://www.w3.org/2000/svg" xmlns:xlink="http://www.w3.org/1999/xlink" contentScriptType="application/ecmascript" contentStyleType="text/css" height="481px" preserveAspectRatio="none" style="width:241px;height:481px;" version="1.1" viewBox="0 0 241 481" width="241px" zoomAndPan="magnify"><defs><filter height="300%" id="fl2rqosqml9ih" width="300%" x="-1" y="-1"><feGaussianBlur result="blurOut" stdDeviation="2.0"/><feColorMatrix in="blurOut" result="blurOut2" type="matrix" values="0 0 0 0 0 0 0 0 0 0 0 0 0 0 0 0 0 0 .4 0"/><feOffset dx="4.0" dy="4.0" in="blurOut2" result="blurOut3"/><feBlend in="SourceGraphic" in2="blurOut3" mode="normal"/></filter></defs><g><text fill="#000000" font-family="sans-serif" font-size="18" lengthAdjust="spacingAndGlyphs" textLength="155" x="39.25" y="26.708">Activity Diagram</text><text fill="#000000" font-family="sans-serif" font-size="18" lengthAdjust="spacingAndGlyphs" textLength="0" x="122.75" y="47.6611"/><ellipse cx="92.5" cy="61.9063" fill="#000000" filter="url(#fl2rqosqml9ih)" rx="10" ry="10" style="stroke:none;stroke-width:1.0;"/><rect fill="#FFFFFF" filter="url(#fl2rqosqml9ih)" height="82.2656" style="stroke:#000000;stroke-width:2.0;" width="150" x="17.5" y="81.9063"/><path d="M116.5,81.9063 L116.5,91.2031 L106.5,101.2031 L17.5,101.2031 " fill="none" style="stroke:#000000;stroke-width:2.0;"/><text fill="#000000" font-family="sans-serif" font-size="14" lengthAdjust="spacingAndGlyphs" textLength="89" x="20.5" y="95.9014">Initialization</text><rect fill="#FFA500" filter="url(#fl2rqosqml9ih)" height="33.9688" rx="12.5" ry="12.5" style="stroke:#A80036;stroke-width:1.5;" width="130" x="27.5" y="118.2031"/><text fill="#000000" font-family="sans-serif" font-size="12" lengthAdjust="spacingAndGlyphs" textLength="110" x="37.5" y="139.3418">import pyrix as px</text><rect fill="#FFA500" filter="url(#fl2rqosqml9ih)" height="33.9688" rx="12.5" ry="12.5" style="stroke:#A80036;stroke-width:1.5;" width="163" x="11" y="238.1406"/><text fill="#000000" font-family="sans-serif" font-size="12" lengthAdjust="spacingAndGlyphs" textLength="143" x="21" y="259.2793">Invoke Function/Method</text><rect fill="#FFA500" filter="url(#fl2rqosqml9ih)" height="33.9688" rx="12.5" ry="12.5" style="stroke:#A80036;stroke-width:1.5;" width="102" x="41.5" y="292.1094"/><text fill="#000000" font-family="sans-serif" font-size="12" lengthAdjust="spacingAndGlyphs" textLength="82" x="51.5" y="313.248">Returns Value</text><polygon fill="#00FFFF" filter="url(#fl2rqosqml9ih)" points="49.5,349.6172,135.5,349.6172,147.5,361.6172,135.5,373.6172,49.5,373.6172,37.5,361.6172,49.5,349.6172" style="stroke:#A80036;stroke-width:1.5;"/><text fill="#000000" font-family="sans-serif" font-size="11" lengthAdjust="spacingAndGlyphs" textLength="86" x="49.5" y="365.4253">Execution over</text><text fill="#000000" font-family="sans-serif" font-size="11" lengthAdjust="spacingAndGlyphs" textLength="21" x="147.5" y="359.0229">yes</text><ellipse cx="190.5" cy="361.6172" fill="#FFFFFF" filter="url(#fl2rqosqml9ih)" rx="11" ry="11" style="stroke:#000000;stroke-width:1.0;"/><ellipse cx="190.5" cy="361.6172" fill="#000000" rx="6" ry="6" style="stroke:#7F7F7F;stroke-width:1.0;"/><rect fill="#00FFFF" filter="url(#fl2rqosqml9ih)" height="33.9688" rx="12.5" ry="12.5" style="stroke:#A80036;stroke-width:1.5;" width="155" x="15" y="184.1719"/><text fill="#000000" font-family="sans-serif" font-size="12" lengthAdjust="spacingAndGlyphs" textLength="135" x="25" y="205.3105">Create a Matrix Object</text><line style="stroke:#A80036;stroke-width:1.5;" x1="92.5" x2="92.5" y1="71.9063" y2="118.2031"/><polygon fill="#A80036" points="88.5,108.2031,92.5,118.2031,96.5,108.2031,92.5,112.2031" style="stroke:#A80036;stroke-width:1.0;"/><line style="stroke:#A80036;stroke-width:1.5;" x1="92.5" x2="92.5" y1="272.1094" y2="292.1094"/><polygon fill="#A80036" points="88.5,282.1094,92.5,292.1094,96.5,282.1094,92.5,286.1094" style="stroke:#A80036;stroke-width:1.0;"/><line style="stroke:#A80036;stroke-width:1.5;" x1="92.5" x2="92.5" y1="373.6172" y2="469.6172"/><line style="stroke:#A80036;stroke-width:1.5;" x1="147.5" x2="179.5" y1="361.6172" y2="361.6172"/><polygon fill="#A80036" points="169.5,357.6172,179.5,361.6172,169.5,365.6172,173.5,361.6172" style="stroke:#A80036;stroke-width:1.0;"/><line style="stroke:#A80036;stroke-width:1.5;" x1="92.5" x2="92.5" y1="326.0781" y2="349.6172"/><polygon fill="#A80036" points="88.5,339.6172,92.5,349.6172,96.5,339.6172,92.5,343.6172" style="stroke:#A80036;stroke-width:1.0;"/><line style="stroke:#A80036;stroke-width:1.5;" x1="92.5" x2="92.5" y1="218.1406" y2="238.1406"/><polygon fill="#A80036" points="88.5,228.1406,92.5,238.1406,96.5,228.1406,92.5,232.1406" style="stroke:#A80036;stroke-width:1.0;"/><line style="stroke:#A80036;stroke-width:1.5;" x1="92.5" x2="215.5" y1="469.6172" y2="469.6172"/><polygon fill="#A80036" points="211.5,329.6172,215.5,319.6172,219.5,329.6172,215.5,325.6172" style="stroke:#A80036;stroke-width:1.5;"/><line style="stroke:#A80036;stroke-width:1.5;" x1="215.5" x2="215.5" y1="201.1563" y2="469.6172"/><line style="stroke:#A80036;stroke-width:1.5;" x1="215.5" x2="170" y1="201.1563" y2="201.1563"/><polygon fill="#A80036" points="180,197.1563,170,201.1563,180,205.1563,176,201.1563" style="stroke:#A80036;stroke-width:1.0;"/><line style="stroke:#A80036;stroke-width:1.5;" x1="92.5" x2="92.5" y1="152.1719" y2="184.1719"/><polygon fill="#A80036" points="88.5,174.1719,92.5,184.1719,96.5,174.1719,92.5,178.1719" style="stroke:#A80036;stroke-width:1.0;"/><!--MD5=[b5179a99b563e914fdb46eb3569ac401]
@startuml
!pragma useVerticalIf on
title Activity Diagram \n

start
partition Initialization {
    #Orange:import pyrix as px;
}
#Cyan:repeat :Create a Matrix Object;
#Orange:Invoke Function/Method;
#Orange:Returns Value;
#Cyan:if (Execution over) then (yes)
  stop
@enduml

PlantUML version 1.2020.23beta3(Unknown compile time)
(GPL source distribution)
Java Runtime: Java(TM) SE Runtime Environment
JVM: Java HotSpot(TM) 64-Bit Server VM
Default Encoding: UTF-8
Language: en
Country: US
--></g></svg>