<?xml version="1.0" encoding="UTF-8" standalone="no"?>
<svg xmlns="http://www.w3.org/2000/svg" xmlns:xlink="http://www.w3.org/1999/xlink" contentScriptType="application/ecmascript" contentStyleType="text/css" height="287px" preserveAspectRatio="none" style="width:1261px;height:287px;" version="1.1" viewBox="0 0 1261 287" width="1261px" zoomAndPan="magnify"><defs/><g><text fill="#000000" font-family="Serif" font-size="10" lengthAdjust="spacingAndGlyphs" textLength="14" x="17" y="25.2822">30</text><text fill="#000000" font-family="Serif" font-size="10" lengthAdjust="spacingAndGlyphs" textLength="7" x="45" y="25.2822">6</text><text fill="#000000" font-family="Serif" font-size="10" lengthAdjust="spacingAndGlyphs" textLength="14" x="73" y="25.2822">13</text><text fill="#000000" font-family="Serif" font-size="10" lengthAdjust="spacingAndGlyphs" textLength="13" x="101" y="25.2822">20</text><text fill="#000000" font-family="Serif" font-size="10" lengthAdjust="spacingAndGlyphs" textLength="13" x="129" y="25.2822">27</text><text fill="#000000" font-family="Serif" font-size="10" lengthAdjust="spacingAndGlyphs" textLength="7" x="157" y="25.2822">4</text><text fill="#000000" font-family="Serif" font-size="10" lengthAdjust="spacingAndGlyphs" textLength="14" x="185" y="25.2822">11</text><text fill="#000000" font-family="Serif" font-size="10" lengthAdjust="spacingAndGlyphs" textLength="14" x="213" y="25.2822">18</text><text fill="#000000" font-family="Serif" font-size="10" lengthAdjust="spacingAndGlyphs" textLength="12" x="241" y="25.2822">25</text><text fill="#000000" font-family="Serif" font-size="10" lengthAdjust="spacingAndGlyphs" textLength="7" x="269" y="25.2822">1</text><text fill="#000000" font-family="Serif" font-size="10" lengthAdjust="spacingAndGlyphs" textLength="7" x="297" y="25.2822">8</text><text fill="#000000" font-family="Serif" font-size="10" lengthAdjust="spacingAndGlyphs" textLength="13" x="325" y="25.2822">15</text><text fill="#000000" font-family="Serif" font-size="10" lengthAdjust="spacingAndGlyphs" textLength="12" x="353" y="25.2822">22</text><text fill="#000000" font-family="Serif" font-size="10" lengthAdjust="spacingAndGlyphs" textLength="13" x="381" y="25.2822">29</text><text fill="#000000" font-family="Serif" font-size="10" lengthAdjust="spacingAndGlyphs" textLength="7" x="409" y="25.2822">6</text><text fill="#000000" font-family="Serif" font-size="10" lengthAdjust="spacingAndGlyphs" textLength="14" x="437" y="25.2822">13</text><text fill="#000000" font-family="Serif" font-size="10" lengthAdjust="spacingAndGlyphs" textLength="13" x="465" y="25.2822">20</text><text fill="#000000" font-family="Serif" font-size="10" lengthAdjust="spacingAndGlyphs" textLength="13" x="493" y="25.2822">27</text><text fill="#000000" font-family="Serif" font-size="10" lengthAdjust="spacingAndGlyphs" textLength="7" x="521" y="25.2822">3</text><text fill="#000000" font-family="Serif" font-size="10" lengthAdjust="spacingAndGlyphs" textLength="14" x="549" y="25.2822">10</text><text fill="#000000" font-family="Serif" font-size="10" lengthAdjust="spacingAndGlyphs" textLength="14" x="577" y="25.2822">17</text><text fill="#000000" font-family="Serif" font-size="10" lengthAdjust="spacingAndGlyphs" textLength="13" x="605" y="25.2822">24</text><text fill="#000000" font-family="Serif" font-size="10" lengthAdjust="spacingAndGlyphs" textLength="14" x="633" y="25.2822">31</text><text fill="#000000" font-family="Serif" font-size="10" lengthAdjust="spacingAndGlyphs" textLength="7" x="661" y="25.2822">7</text><text fill="#000000" font-family="Serif" font-size="10" lengthAdjust="spacingAndGlyphs" textLength="14" x="689" y="25.2822">14</text><text fill="#000000" font-family="Serif" font-size="10" lengthAdjust="spacingAndGlyphs" textLength="13" x="717" y="25.2822">21</text><text fill="#000000" font-family="Serif" font-size="10" lengthAdjust="spacingAndGlyphs" textLength="13" x="745" y="25.2822">28</text><text fill="#000000" font-family="Serif" font-size="10" lengthAdjust="spacingAndGlyphs" textLength="6" x="773" y="25.2822">5</text><text fill="#000000" font-family="Serif" font-size="10" lengthAdjust="spacingAndGlyphs" textLength="13" x="801" y="25.2822">12</text><text fill="#000000" font-family="Serif" font-size="10" lengthAdjust="spacingAndGlyphs" textLength="14" x="829" y="25.2822">19</text><text fill="#000000" font-family="Serif" font-size="10" lengthAdjust="spacingAndGlyphs" textLength="13" x="857" y="25.2822">26</text><text fill="#000000" font-family="Serif" font-size="10" lengthAdjust="spacingAndGlyphs" textLength="6" x="885" y="25.2822">2</text><text fill="#000000" font-family="Serif" font-size="10" lengthAdjust="spacingAndGlyphs" textLength="7" x="913" y="25.2822">9</text><text fill="#000000" font-family="Serif" font-size="10" lengthAdjust="spacingAndGlyphs" textLength="14" x="941" y="25.2822">16</text><text fill="#000000" font-family="Serif" font-size="10" lengthAdjust="spacingAndGlyphs" textLength="13" x="969" y="25.2822">23</text><text fill="#000000" font-family="Serif" font-size="10" lengthAdjust="spacingAndGlyphs" textLength="14" x="997" y="25.2822">30</text><text fill="#000000" font-family="Serif" font-size="10" lengthAdjust="spacingAndGlyphs" textLength="7" x="1025" y="25.2822">7</text><text fill="#000000" font-family="Serif" font-size="10" lengthAdjust="spacingAndGlyphs" textLength="14" x="1053" y="25.2822">14</text><text fill="#000000" font-family="Serif" font-size="10" lengthAdjust="spacingAndGlyphs" textLength="13" x="1081" y="25.2822">21</text><text fill="#000000" font-family="Serif" font-size="10" lengthAdjust="spacingAndGlyphs" textLength="13" x="1109" y="25.2822">28</text><text fill="#000000" font-family="Serif" font-size="10" lengthAdjust="spacingAndGlyphs" textLength="7" x="1137" y="25.2822">4</text><text fill="#000000" font-family="Serif" font-size="10" lengthAdjust="spacingAndGlyphs" textLength="14" x="1165" y="25.2822">11</text><text fill="#000000" font-family="Serif" font-size="10" lengthAdjust="spacingAndGlyphs" textLength="14" x="1193" y="25.2822">18</text><line style="stroke:#C0C0C0;stroke-width:1.0;" x1="12" x2="12" y1="16" y2="269"/><line style="stroke:#C0C0C0;stroke-width:1.0;" x1="40" x2="40" y1="16" y2="269"/><line style="stroke:#C0C0C0;stroke-width:1.0;" x1="68" x2="68" y1="16" y2="269"/><line style="stroke:#C0C0C0;stroke-width:1.0;" x1="96" x2="96" y1="16" y2="269"/><line style="stroke:#C0C0C0;stroke-width:1.0;" x1="124" x2="124" y1="16" y2="269"/><line style="stroke:#C0C0C0;stroke-width:1.0;" x1="152" x2="152" y1="16" y2="269"/><line style="stroke:#C0C0C0;stroke-width:1.0;" x1="180" x2="180" y1="16" y2="269"/><line style="stroke:#C0C0C0;stroke-width:1.0;" x1="208" x2="208" y1="16" y2="269"/><line style="stroke:#C0C0C0;stroke-width:1.0;" x1="236" x2="236" y1="16" y2="269"/><line style="stroke:#C0C0C0;stroke-width:1.0;" x1="264" x2="264" y1="16" y2="269"/><line style="stroke:#C0C0C0;stroke-width:1.0;" x1="292" x2="292" y1="16" y2="269"/><line style="stroke:#C0C0C0;stroke-width:1.0;" x1="320" x2="320" y1="16" y2="269"/><line style="stroke:#C0C0C0;stroke-width:1.0;" x1="348" x2="348" y1="16" y2="269"/><line style="stroke:#C0C0C0;stroke-width:1.0;" x1="376" x2="376" y1="16" y2="269"/><line style="stroke:#C0C0C0;stroke-width:1.0;" x1="404" x2="404" y1="16" y2="269"/><line style="stroke:#C0C0C0;stroke-width:1.0;" x1="432" x2="432" y1="16" y2="269"/><line style="stroke:#C0C0C0;stroke-width:1.0;" x1="460" x2="460" y1="16" y2="269"/><line style="stroke:#C0C0C0;stroke-width:1.0;" x1="488" x2="488" y1="16" y2="269"/><line style="stroke:#C0C0C0;stroke-width:1.0;" x1="516" x2="516" y1="16" y2="269"/><line style="stroke:#C0C0C0;stroke-width:1.0;" x1="544" x2="544" y1="16" y2="269"/><line style="stroke:#C0C0C0;stroke-width:1.0;" x1="572" x2="572" y1="16" y2="269"/><line style="stroke:#C0C0C0;stroke-width:1.0;" x1="600" x2="600" y1="16" y2="269"/><line style="stroke:#C0C0C0;stroke-width:1.0;" x1="628" x2="628" y1="16" y2="269"/><line style="stroke:#C0C0C0;stroke-width:1.0;" x1="656" x2="656" y1="16" y2="269"/><line style="stroke:#C0C0C0;stroke-width:1.0;" x1="684" x2="684" y1="16" y2="269"/><line style="stroke:#C0C0C0;stroke-width:1.0;" x1="712" x2="712" y1="16" y2="269"/><line style="stroke:#C0C0C0;stroke-width:1.0;" x1="740" x2="740" y1="16" y2="269"/><line style="stroke:#C0C0C0;stroke-width:1.0;" x1="768" x2="768" y1="16" y2="269"/><line style="stroke:#C0C0C0;stroke-width:1.0;" x1="796" x2="796" y1="16" y2="269"/><line style="stroke:#C0C0C0;stroke-width:1.0;" x1="824" x2="824" y1="16" y2="269"/><line style="stroke:#C0C0C0;stroke-width:1.0;" x1="852" x2="852" y1="16" y2="269"/><line style="stroke:#C0C0C0;stroke-width:1.0;" x1="880" x2="880" y1="16" y2="269"/><line style="stroke:#C0C0C0;stroke-width:1.0;" x1="908" x2="908" y1="16" y2="269"/><line style="stroke:#C0C0C0;stroke-width:1.0;" x1="936" x2="936" y1="16" y2="269"/><line style="stroke:#C0C0C0;stroke-width:1.0;" x1="964" x2="964" y1="16" y2="269"/><line style="stroke:#C0C0C0;stroke-width:1.0;" x1="992" x2="992" y1="16" y2="269"/><line style="stroke:#C0C0C0;stroke-width:1.0;" x1="1020" x2="1020" y1="16" y2="269"/><line style="stroke:#C0C0C0;stroke-width:1.0;" x1="1048" x2="1048" y1="16" y2="269"/><line style="stroke:#C0C0C0;stroke-width:1.0;" x1="1076" x2="1076" y1="16" y2="269"/><line style="stroke:#C0C0C0;stroke-width:1.0;" x1="1104" x2="1104" y1="16" y2="269"/><line style="stroke:#C0C0C0;stroke-width:1.0;" x1="1132" x2="1132" y1="16" y2="269"/><line style="stroke:#C0C0C0;stroke-width:1.0;" x1="1160" x2="1160" y1="16" y2="269"/><line style="stroke:#C0C0C0;stroke-width:1.0;" x1="1188" x2="1188" y1="16" y2="269"/><line style="stroke:#C0C0C0;stroke-width:1.0;" x1="1216" x2="1216" y1="16" y2="269"/><line style="stroke:#C0C0C0;stroke-width:1.0;" x1="0" x2="0" y1="0" y2="16"/><line style="stroke:#C0C0C0;stroke-width:1.0;" x1="20" x2="20" y1="0" y2="16"/><text fill="#000000" font-family="Serif" font-size="12" font-weight="bold" lengthAdjust="spacingAndGlyphs" textLength="28" x="0" y="11.2676">Mar</text><line style="stroke:#C0C0C0;stroke-width:1.0;" x1="140" x2="140" y1="0" y2="16"/><text fill="#000000" font-family="Serif" font-size="12" font-weight="bold" lengthAdjust="spacingAndGlyphs" textLength="64" x="48" y="11.2676">Apr 2020</text><line style="stroke:#C0C0C0;stroke-width:1.0;" x1="264" x2="264" y1="0" y2="16"/><text fill="#000000" font-family="Serif" font-size="12" font-weight="bold" lengthAdjust="spacingAndGlyphs" textLength="69" x="167.5" y="11.2676">May 2020</text><line style="stroke:#C0C0C0;stroke-width:1.0;" x1="384" x2="384" y1="0" y2="16"/><text fill="#000000" font-family="Serif" font-size="12" font-weight="bold" lengthAdjust="spacingAndGlyphs" textLength="63" x="292.5" y="11.2676">Jun 2020</text><line style="stroke:#C0C0C0;stroke-width:1.0;" x1="508" x2="508" y1="0" y2="16"/><text fill="#000000" font-family="Serif" font-size="12" font-weight="bold" lengthAdjust="spacingAndGlyphs" textLength="60" x="416" y="11.2676">Jul 2020</text><line style="stroke:#C0C0C0;stroke-width:1.0;" x1="632" x2="632" y1="0" y2="16"/><text fill="#000000" font-family="Serif" font-size="12" font-weight="bold" lengthAdjust="spacingAndGlyphs" textLength="67" x="536.5" y="11.2676">Aug 2020</text><line style="stroke:#C0C0C0;stroke-width:1.0;" x1="752" x2="752" y1="0" y2="16"/><text fill="#000000" font-family="Serif" font-size="12" font-weight="bold" lengthAdjust="spacingAndGlyphs" textLength="66" x="659" y="11.2676">Sep 2020</text><line style="stroke:#C0C0C0;stroke-width:1.0;" x1="876" x2="876" y1="0" y2="16"/><text fill="#000000" font-family="Serif" font-size="12" font-weight="bold" lengthAdjust="spacingAndGlyphs" textLength="65" x="781.5" y="11.2676">Oct 2020</text><line style="stroke:#C0C0C0;stroke-width:1.0;" x1="996" x2="996" y1="0" y2="16"/><text fill="#000000" font-family="Serif" font-size="12" font-weight="bold" lengthAdjust="spacingAndGlyphs" textLength="68" x="902" y="11.2676">Nov 2020</text><line style="stroke:#C0C0C0;stroke-width:1.0;" x1="1120" x2="1120" y1="0" y2="16"/><text fill="#000000" font-family="Serif" font-size="12" font-weight="bold" lengthAdjust="spacingAndGlyphs" textLength="67" x="1024.5" y="11.2676">Dec 2020</text><line style="stroke:#C0C0C0;stroke-width:1.0;" x1="1216" x2="1216" y1="0" y2="16"/><text fill="#000000" font-family="Serif" font-size="12" font-weight="bold" lengthAdjust="spacingAndGlyphs" textLength="61" x="1137.5" y="11.2676">Jan 2021</text><line style="stroke:#C0C0C0;stroke-width:1.0;" x1="0" x2="1216" y1="0" y2="0"/><line style="stroke:#C0C0C0;stroke-width:1.0;" x1="0" x2="1216" y1="16" y2="16"/><line style="stroke:#C0C0C0;stroke-width:1.0;" x1="0" x2="1216" y1="29" y2="29"/><line style="stroke:#CD0A0A;stroke-width:1.5;" x1="20" x2="20" y1="45" y2="53"/><line style="stroke:#CD0A0A;stroke-width:1.5;" x1="20" x2="28" y1="53" y2="53"/><polygon fill="#CD0A0A" points="24,49,24,53,24,57,28,53" style="stroke:#CD0A0A;stroke-width:1.5;"/><line style="stroke:#CD0A0A;stroke-width:1.5;" x1="496" x2="496" y1="61" y2="85"/><line style="stroke:#CD0A0A;stroke-width:1.5;" x1="496" x2="504" y1="85" y2="85"/><polygon fill="#CD0A0A" points="500,81,500,85,500,89,504,85" style="stroke:#CD0A0A;stroke-width:1.5;"/><line style="stroke:#CD0A0A;stroke-width:1.5;" x1="636" x2="636" y1="93" y2="117"/><line style="stroke:#CD0A0A;stroke-width:1.5;" x1="636" x2="644" y1="117" y2="117"/><polygon fill="#CD0A0A" points="640,113,640,117,640,121,644,117" style="stroke:#CD0A0A;stroke-width:1.5;"/><line style="stroke:#CD0A0A;stroke-width:1.5;" x1="776" x2="776" y1="125" y2="149"/><line style="stroke:#CD0A0A;stroke-width:1.5;" x1="776" x2="784" y1="149" y2="149"/><polygon fill="#CD0A0A" points="780,145,780,149,780,153,784,149" style="stroke:#CD0A0A;stroke-width:1.5;"/><line style="stroke:#CD0A0A;stroke-width:1.5;" x1="20" x2="20" y1="45" y2="197"/><line style="stroke:#CD0A0A;stroke-width:1.5;" x1="20" x2="28" y1="197" y2="197"/><polygon fill="#CD0A0A" points="24,193,24,197,24,201,28,197" style="stroke:#CD0A0A;stroke-width:1.5;"/><line style="stroke:#CD0A0A;stroke-width:1.5;" x1="496" x2="496" y1="61" y2="213"/><line style="stroke:#CD0A0A;stroke-width:1.5;" x1="496" x2="504" y1="213" y2="213"/><polygon fill="#CD0A0A" points="500,209,500,213,500,217,504,213" style="stroke:#CD0A0A;stroke-width:1.5;"/><rect fill="#FF00FF" height="12" rx="4" ry="4" style="stroke:#B22222;stroke-width:1.0;" width="24" x="2" y="31"/><rect fill="#ADFF2F" height="12" rx="4" ry="4" style="stroke:#008000;stroke-width:1.0;" width="472" x="30" y="47"/><polygon fill="#000000" points="504,63,510,69,504,75,498,69" style="stroke:#000000;stroke-width:1.0;"/><rect fill="#ADFF2F" height="12" rx="4" ry="4" style="stroke:#008000;stroke-width:1.0;" width="136" x="506" y="79"/><polygon fill="#000000" points="628,95,634,101,628,107,622,101" style="stroke:#000000;stroke-width:1.0;"/><rect fill="#ADFF2F" height="12" rx="4" ry="4" style="stroke:#008000;stroke-width:1.0;" width="136" x="646" y="111"/><polygon fill="#000000" points="748,127,754,133,748,139,742,133" style="stroke:#000000;stroke-width:1.0;"/><rect fill="#ADFF2F" height="12" rx="4" ry="4" style="stroke:#008000;stroke-width:1.0;" width="304" x="786" y="143"/><polygon fill="#000000" points="1072,159,1078,165,1072,171,1066,165" style="stroke:#000000;stroke-width:1.0;"/><rect fill="#ADFF2F" height="12" rx="4" ry="4" style="stroke:#008000;stroke-width:1.0;" width="220" x="994" y="175"/><rect fill="#FFFF00" height="12" rx="4" ry="4" style="stroke:#FFA500;stroke-width:1.0;" width="1032" x="30" y="191"/><rect fill="#87CEEB" height="12" rx="4" ry="4" style="stroke:#000080;stroke-width:1.0;" width="192" x="506" y="207"/><polygon fill="#000000" points="700,223,706,229,700,235,694,229" style="stroke:#000000;stroke-width:1.0;"/><polygon fill="#000000" points="828,239,834,245,828,251,822,245" style="stroke:#000000;stroke-width:1.0;"/><polygon fill="#000000" points="1084,255,1090,261,1084,267,1078,261" style="stroke:#000000;stroke-width:1.0;"/><text fill="#000000" font-family="sans-serif" font-size="11" lengthAdjust="spacingAndGlyphs" textLength="68" x="30" y="39.8081">Initialization</text><text fill="#000000" font-family="sans-serif" font-size="11" lengthAdjust="spacingAndGlyphs" textLength="157" x="34" y="55.8081">MVP Package Development</text><text fill="#000000" font-family="sans-serif" font-size="11" lengthAdjust="spacingAndGlyphs" textLength="114" x="512" y="71.8081">V-0.6.14 Developed</text><text fill="#000000" font-family="sans-serif" font-size="11" lengthAdjust="spacingAndGlyphs" textLength="108" x="510" y="87.8081">V-0.7.17rc0 Update</text><text fill="#000000" font-family="sans-serif" font-size="11" lengthAdjust="spacingAndGlyphs" textLength="123" x="636" y="103.8081">V-0.7.17rc0 Deployed</text><text fill="#000000" font-family="sans-serif" font-size="11" lengthAdjust="spacingAndGlyphs" textLength="108" x="650" y="119.8081">V-0.7.17rc1 Update</text><text fill="#000000" font-family="sans-serif" font-size="11" lengthAdjust="spacingAndGlyphs" textLength="127" x="756" y="135.8081">V-0.7.17rc1  Deployed</text><text fill="#000000" font-family="sans-serif" font-size="11" lengthAdjust="spacingAndGlyphs" textLength="91" x="790" y="151.8081">V-0.7.17 Update</text><text fill="#000000" font-family="sans-serif" font-size="11" lengthAdjust="spacingAndGlyphs" textLength="106" x="1080" y="167.8081">V-0.7.17 Deployed</text><text fill="#000000" font-family="sans-serif" font-size="11" lengthAdjust="spacingAndGlyphs" textLength="122" x="998" y="183.8081">V-0.8.20alpha Update</text><text fill="#000000" font-family="sans-serif" font-size="11" lengthAdjust="spacingAndGlyphs" textLength="284" x="34" y="199.8081">Documentation PDF, Website Design and Material</text><text fill="#000000" font-family="sans-serif" font-size="11" lengthAdjust="spacingAndGlyphs" textLength="153" x="510" y="215.8081">Test Suite Implementation</text><text fill="#000000" font-family="sans-serif" font-size="11" lengthAdjust="spacingAndGlyphs" textLength="126" x="708" y="231.8081">Test Suite/CI Included</text><text fill="#000000" font-family="sans-serif" font-size="11" lengthAdjust="spacingAndGlyphs" textLength="198" x="836" y="247.8081">Documentation Website Deployed</text><text fill="#000000" font-family="sans-serif" font-size="11" lengthAdjust="spacingAndGlyphs" textLength="167" x="1092" y="263.8081">Documentation PDF Finalized</text><line style="stroke:#C0C0C0;stroke-width:1.0;" x1="0" x2="1216" y1="269" y2="269"/><line style="stroke:#C0C0C0;stroke-width:1.0;" x1="0" x2="0" y1="269" y2="285"/><line style="stroke:#C0C0C0;stroke-width:1.0;" x1="20" x2="20" y1="269" y2="285"/><text fill="#000000" font-family="Serif" font-size="12" font-weight="bold" lengthAdjust="spacingAndGlyphs" textLength="28" x="0" y="280.2676">Mar</text><line style="stroke:#C0C0C0;stroke-width:1.0;" x1="140" x2="140" y1="269" y2="285"/><text fill="#000000" font-family="Serif" font-size="12" font-weight="bold" lengthAdjust="spacingAndGlyphs" textLength="64" x="48" y="280.2676">Apr 2020</text><line style="stroke:#C0C0C0;stroke-width:1.0;" x1="264" x2="264" y1="269" y2="285"/><text fill="#000000" font-family="Serif" font-size="12" font-weight="bold" lengthAdjust="spacingAndGlyphs" textLength="69" x="167.5" y="280.2676">May 2020</text><line style="stroke:#C0C0C0;stroke-width:1.0;" x1="384" x2="384" y1="269" y2="285"/><text fill="#000000" font-family="Serif" font-size="12" font-weight="bold" lengthAdjust="spacingAndGlyphs" textLength="63" x="292.5" y="280.2676">Jun 2020</text><line style="stroke:#C0C0C0;stroke-width:1.0;" x1="508" x2="508" y1="269" y2="285"/><text fill="#000000" font-family="Serif" font-size="12" font-weight="bold" lengthAdjust="spacingAndGlyphs" textLength="60" x="416" y="280.2676">Jul 2020</text><line style="stroke:#C0C0C0;stroke-width:1.0;" x1="632" x2="632" y1="269" y2="285"/><text fill="#000000" font-family="Serif" font-size="12" font-weight="bold" lengthAdjust="spacingAndGlyphs" textLength="67" x="536.5" y="280.2676">Aug 2020</text><line style="stroke:#C0C0C0;stroke-width:1.0;" x1="752" x2="752" y1="269" y2="285"/><text fill="#000000" font-family="Serif" font-size="12" font-weight="bold" lengthAdjust="spacingAndGlyphs" textLength="66" x="659" y="280.2676">Sep 2020</text><line style="stroke:#C0C0C0;stroke-width:1.0;" x1="876" x2="876" y1="269" y2="285"/><text fill="#000000" font-family="Serif" font-size="12" font-weight="bold" lengthAdjust="spacingAndGlyphs" textLength="65" x="781.5" y="280.2676">Oct 2020</text><line style="stroke:#C0C0C0;stroke-width:1.0;" x1="996" x2="996" y1="269" y2="285"/><text fill="#000000" font-family="Serif" font-size="12" font-weight="bold" lengthAdjust="spacingAndGlyphs" textLength="68" x="902" y="280.2676">Nov 2020</text><line style="stroke:#C0C0C0;stroke-width:1.0;" x1="1120" x2="1120" y1="269" y2="285"/><text fill="#000000" font-family="Serif" font-size="12" font-weight="bold" lengthAdjust="spacingAndGlyphs" textLength="67" x="1024.5" y="280.2676">Dec 2020</text><line style="stroke:#C0C0C0;stroke-width:1.0;" x1="1216" x2="1216" y1="269" y2="285"/><text fill="#000000" font-family="Serif" font-size="12" font-weight="bold" lengthAdjust="spacingAndGlyphs" textLength="61" x="1137.5" y="280.2676">Jan 2021</text><line style="stroke:#C0C0C0;stroke-width:1.0;" x1="0" x2="1216" y1="285" y2="285"/><!--MD5=[60740f88f8f55cca997f40e260824ceb]
@startgantt
printscale weekly
Project starts the 27th of march 2020
[Initialization] lasts 1 week
[MVP Package Development] lasts 17 weeks
[MVP Package Development] starts at [Initialization]'s end
[V-0.6.14 Developed] happens 2020-07-29
[V-0.7.17rc0 Update] lasts 5 weeks
[V-0.7.17rc0 Update] starts at [MVP Package Development]'s end
[V-0.7.17rc0 Deployed] happens 2020-08-29
[V-0.7.17rc1 Update] lasts 5 weeks
[V-0.7.17rc1 Update] starts at [V-0.7.17rc0 Update]'s end
[V-0.7.17rc1  Deployed] happens 2020-09-28
[V-0.7.17 Update] lasts 11 weeks
[V-0.7.17 Update] starts at [V-0.7.17rc1 Update]'s end
[V-0.7.17 Deployed] happens 2020-12-18
[V-0.8.20alpha Update] lasts 8 weeks
[V-0.8.20alpha Update] starts at 2020-11-30
[Documentation PDF, Website Design and Material] as [dw] lasts 37 weeks
[dw] starts at [Initialization]'s end
[Test Suite Implementation] lasts 7 weeks
[Test Suite Implementation] starts at [MVP Package Development]'s end
[Test Suite/CI Included] happens 2020-09-16
[Documentation Website Deployed] happens 2020-10-18
[Documentation PDF Finalized] happens 2020-12-21
[Initialization] is colored in Fuchsia/FireBrick
[MVP Package Development] is colored in GreenYellow/Green
[V-0.7.17rc0 Update] is colored in GreenYellow/Green
[V-0.7.17rc1 Update] is colored in GreenYellow/Green
[V-0.7.17 Update] is colored in GreenYellow/Green
[V-0.8.20alpha Update] is colored in GreenYellow/Green
[Test Suite Implementation] is colored in SkyBlue/Navy
[dw] is colored in Yellow/Orange
@endgantt

PlantUML version 1.2020.23beta3(Unknown compile time)
(GPL source distribution)
Java Runtime: Java(TM) SE Runtime Environment
JVM: Java HotSpot(TM) 64-Bit Server VM
Default Encoding: UTF-8
Language: en
Country: US
--></g></svg>